<svg width="19" height="18" viewBox="0 0 19 18" fill="none" xmlns="http://www.w3.org/2000/svg">
<g opacity="0.9">
<path d="M3.74749 8.55544C3.74751 8.45479 3.76741 8.35513 3.80605 8.26218C3.84469 8.16924 3.90131 8.08485 3.97265 8.01385C4.044 7.94285 4.12867 7.88664 4.22179 7.84845C4.31492 7.81026 4.41468 7.79085 4.51533 7.79132L5.78832 7.79547C5.9913 7.79547 6.18596 7.8761 6.32948 8.01963C6.47301 8.16315 6.55364 8.35781 6.55364 8.56079V13.3746C6.69701 13.3321 6.8805 13.2868 7.08242 13.2393C7.22231 13.2064 7.34698 13.1272 7.43621 13.0145C7.52545 12.9019 7.57403 12.7624 7.57406 12.6187V6.64787C7.57406 6.44489 7.65468 6.25021 7.7982 6.10666C7.94172 5.96312 8.13638 5.88245 8.33937 5.88241H9.61623C9.81919 5.88245 10.0138 5.9631 10.1573 6.10661C10.3009 6.25013 10.3815 6.44477 10.3815 6.64773V12.1896C10.3815 12.1896 10.701 12.0603 11.0119 11.929C11.1275 11.8801 11.2261 11.7983 11.2955 11.6938C11.3648 11.5892 11.4019 11.4665 11.402 11.3411V4.73452C11.402 4.53157 11.4826 4.33693 11.6261 4.19341C11.7696 4.04989 11.9642 3.96924 12.1671 3.9692H13.4426C13.6455 3.9694 13.84 4.05012 13.9833 4.19362C14.1267 4.33713 14.2072 4.53167 14.2072 4.73452V10.1749C15.3131 9.3735 16.4338 8.40954 17.3231 7.2505C17.4522 7.08226 17.5376 6.88469 17.5717 6.67543C17.6058 6.46617 17.5876 6.25171 17.5187 6.0512C17.107 4.86677 16.4526 3.78133 15.5973 2.86433C14.742 1.94733 13.7048 1.21897 12.5519 0.725856C11.399 0.232742 10.1558 -0.0142673 8.90196 0.00063642C7.64811 0.0155402 6.41118 0.292028 5.27032 0.812407C4.12946 1.33279 3.10979 2.0856 2.27657 3.02267C1.44335 3.95973 0.81492 5.06042 0.431498 6.2543C0.0480759 7.44818 -0.0818948 8.70895 0.0499021 9.95595C0.181699 11.2029 0.572362 12.4087 1.19689 13.496C1.3057 13.6836 1.46578 13.8362 1.65832 13.936C1.85087 14.0357 2.06788 14.0784 2.28387 14.0591C2.52516 14.0379 2.82558 14.0079 3.18275 13.966C3.33807 13.9481 3.48141 13.8738 3.5855 13.7572C3.6896 13.6405 3.7472 13.4897 3.74734 13.3333V8.55544" fill="#1A1E1E"/>
<path d="M3.72034 16.2756C5.06483 17.2537 6.65369 17.8408 8.31115 17.9719C9.9686 18.1031 11.63 17.7731 13.1116 17.0186C14.5932 16.2641 15.8371 15.1145 16.7059 13.6969C17.5746 12.2792 18.0343 10.6489 18.034 8.9863C18.034 8.7783 18.0243 8.57356 18.0105 8.36942C14.7176 13.2806 8.6376 15.5765 3.72034 16.2756" fill="#1A1E1E"/>
</g>
</svg>
