<svg width="16" height="16" viewBox="0 0 16 16" fill="none" xmlns="http://www.w3.org/2000/svg">
<path d="M8 4.25C8.4125 4.25 8.75 4.5875 8.75 5V8C8.75 8.4125 8.4125 8.75 8 8.75C7.5875 8.75 7.25 8.4125 7.25 8V5C7.25 4.5875 7.5875 4.25 8 4.25ZM7.9925 0.5C3.8525 0.5 0.5 3.86 0.5 8C0.5 12.14 3.8525 15.5 7.9925 15.5C12.14 15.5 15.5 12.14 15.5 8C15.5 3.86 12.14 0.5 7.9925 0.5ZM8 14C4.685 14 2 11.315 2 8C2 4.685 4.685 2 8 2C11.315 2 14 4.685 14 8C14 11.315 11.315 14 8 14ZM8.75 11.75H7.25V10.25H8.75V11.75Z" fill="#FB6062"/>
</svg>
