<svg width="23" height="23" viewBox="0 0 23 23" fill="none" xmlns="http://www.w3.org/2000/svg">
<path d="M11.7956 0.399994C17.8735 0.399994 22.7999 5.32543 22.7999 11.4022C22.7999 17.4789 17.8735 22.4 11.7999 22.4C5.72201 22.4 0.79993 17.4746 0.79993 11.4022C0.795601 5.32543 5.72201 0.399994 11.7956 0.399994Z" fill="#8247E5"/>
<path d="M15.4017 9.00437C15.1376 8.85289 14.7999 8.85289 14.5012 9.00437L12.3973 10.2509L10.9688 11.0429L8.90383 12.2851C8.63976 12.4366 8.3021 12.4366 8.0034 12.2851L6.38868 11.3026C6.12461 11.1511 5.93846 10.8482 5.93846 10.5106V8.62349C5.93846 8.32052 6.08998 8.02188 6.38868 7.83144L8.0034 6.8879C8.26747 6.73642 8.60513 6.73642 8.90383 6.8879L10.5185 7.87039C10.7826 8.02188 10.9688 8.32485 10.9688 8.66245V9.90895L12.3973 9.07795V7.79682C12.3973 7.49385 12.2458 7.1952 11.9471 7.00476L8.94279 5.23022C8.67872 5.07874 8.34106 5.07874 8.04236 5.23022L4.96444 7.04372C4.66574 7.1952 4.51422 7.49817 4.51422 7.79682V11.3416C4.51422 11.6445 4.66574 11.9432 4.96444 12.1336L8.00773 13.9082C8.2718 14.0597 8.60946 14.0597 8.90816 13.9082L10.9731 12.7006L12.4017 11.8696L14.4666 10.6621C14.7307 10.5106 15.0683 10.5106 15.367 10.6621L16.9818 11.6056C17.2458 11.7571 17.432 12.06 17.432 12.3976V14.2847C17.432 14.5877 17.2805 14.8863 16.9818 15.0768L15.406 16.0203C15.1419 16.1718 14.8043 16.1718 14.5056 16.0203L12.8865 15.0768C12.6224 14.9253 12.4363 14.6223 12.4363 14.2847V13.0772L11.0077 13.9082V15.1547C11.0077 15.4576 11.1592 15.7563 11.4579 15.9467L14.5012 17.7213C14.7653 17.8728 15.103 17.8728 15.4017 17.7213L18.445 15.9467C18.709 15.7952 18.8952 15.4923 18.8952 15.1547V11.571C18.8952 11.268 18.7437 10.9694 18.445 10.7789L15.4017 9.00437Z" fill="white"/>
</svg>
