<svg width="28" height="28" viewBox="0 0 28 28" fill="none" xmlns="http://www.w3.org/2000/svg">
<path d="M14.2946 0.399994C21.7539 0.399994 27.7999 6.44485 27.7999 13.9027C27.7999 21.3605 21.7539 27.4 14.2999 27.4C6.84066 27.4 0.79993 21.3551 0.79993 13.9027C0.794617 6.44485 6.84066 0.399994 14.2946 0.399994Z" fill="#8247E5"/>
<path d="M18.7202 10.9599C18.3961 10.774 17.9817 10.774 17.6152 10.9599L15.0331 12.4897L13.2799 13.4618L10.7456 14.9863C10.4215 15.1722 10.0071 15.1722 9.64054 14.9863L7.65884 13.7805C7.33475 13.5946 7.1063 13.2228 7.1063 12.8084V10.4925C7.1063 10.1206 7.29225 9.75413 7.65884 9.52041L9.64054 8.36243C9.96462 8.17652 10.379 8.17652 10.7456 8.36243L12.7273 9.56822C13.0514 9.75413 13.2799 10.126 13.2799 10.5403V12.0701L15.0331 11.0502V9.47792C15.0331 9.10609 14.8471 8.73957 14.4806 8.50585L10.7934 6.328C10.4693 6.14209 10.0549 6.14209 9.68836 6.328L5.91091 8.55366C5.54432 8.73957 5.35837 9.1114 5.35837 9.47792V13.8283C5.35837 14.2001 5.54432 14.5666 5.91091 14.8004L9.64585 16.9782C9.96994 17.1641 10.3843 17.1641 10.7509 16.9782L13.2852 15.4962L15.0384 14.4763L17.5727 12.9943C17.8967 12.8084 18.3111 12.8084 18.6777 12.9943L20.6594 14.1523C20.9835 14.3382 21.212 14.7101 21.212 15.1244V17.4403C21.212 17.8122 21.026 18.1787 20.6594 18.4124L18.7255 19.5704C18.4015 19.7563 17.9871 19.7563 17.6205 19.5704L15.6335 18.4124C15.3094 18.2265 15.0809 17.8547 15.0809 17.4403V15.9583L13.3277 16.9782V18.508C13.3277 18.8798 13.5136 19.2464 13.8802 19.4801L17.6152 21.6579C17.9392 21.8438 18.3536 21.8438 18.7202 21.6579L22.4552 19.4801C22.7793 19.2942 23.0077 18.9223 23.0077 18.508V14.1098C23.0077 13.738 22.8218 13.3715 22.4552 13.1378L18.7202 10.9599Z" fill="white"/>
</svg>
